HIERARCHY
ROOT Hips
{
	OFFSET 0.000000 0.000000 0.000000
	CHANNELS 6 Xposition Yposition Zposition Zrotation Yrotation Xrotation 
	JOINT LHipJoint
	{
		OFFSET 0.000000 0.000000 0.000000
		CHANNELS 3 Zrotation Yrotation Xrotation
		JOINT LeftUpLeg
		{
			OFFSET 1.363060 -1.794630 0.839290
			CHANNELS 3 Zrotation Yrotation Xrotation
			JOINT LeftLeg
			{
				OFFSET 2.448110 -6.726130 0.000000
				CHANNELS 3 Zrotation Yrotation Xrotation
				JOINT LeftFoot
				{
					OFFSET 2.562200 -7.039590 0.000000
					CHANNELS 3 Zrotation Yrotation Xrotation
					JOINT LeftToeBase
					{
						OFFSET 0.157640 -0.433110 2.322550
						CHANNELS 3 Zrotation Yrotation Xrotation
						End Site
						{
							OFFSET 0.000000 0.000000 0.000000
						}
					}
				}
			}
		}
	}
	JOINT RHipJoint
	{
		OFFSET 0.000000 0.000000 0.000000
		CHANNELS 3 Zrotation Yrotation Xrotation
		JOINT RightUpLeg
		{
			OFFSET -1.305520 -1.794630 0.839290
			CHANNELS 3 Zrotation Yrotation Xrotation
			JOINT RightLeg
			{
				OFFSET -2.542530 -6.985550 0.000000
				CHANNELS 3 Zrotation Yrotation Xrotation
				JOINT RightFoot
				{
					OFFSET -2.568260 -7.056230 0.000000
					CHANNELS 3 Zrotation Yrotation Xrotation
					JOINT RightToeBase
					{
						OFFSET -0.164730 -0.452590 2.363150
						CHANNELS 3 Zrotation Yrotation Xrotation
						End Site
						{
							OFFSET 0.000000 0.000000 0.000000
						}
					}
				}
			}
		}
	}
}
MOTION
Frames: 22
Frame Time: 0.008333
-10.463256 16.691603 -1.190184 -18.457971 83.727574 0.101377 -9.284906 -0.477025 1.741989 -7.580421 -0.947835 -47.537416 -1.645768 0.802677 21.068888 1.420386 8.116399 5.088016 2.320000 -0.000000 -28.312500 9.857247 -2.243708 -2.397437 5.276028 -4.436004 -0.280455 1.541969 -1.418163 22.322940 0.001759 1.221493 1.542906 -0.044400 0.000000 -83.445800
-10.268241 16.695828 -1.201390 -12.507565 84.105476 5.866788 -9.418338 -0.487219 1.644642 -8.306241 -1.122097 -47.284084 -1.637497 0.912401 22.539740 1.440595 8.208203 4.563700 2.248400 0.000000 -27.657300 9.911613 -2.342887 -2.510302 4.435060 -5.115923 -1.161089 1.267934 -1.723712 24.925363 -0.060474 0.946806 3.470558 -0.041801 -0.000000 -85.577001
-10.075444 16.703240 -1.214100 -6.177982 84.583725 12.026641 -9.525663 -0.542617 1.545943 -9.013996 -1.399360 -46.890496 -1.625929 0.975896 23.859380 1.467113 8.354796 3.793042 2.157300 0.000000 -27.181100 10.007228 -2.461962 -2.629400 3.618203 -5.906707 -2.195591 0.993982 -2.035804 27.644075 -0.168777 0.520672 5.657445 -0.063500 -0.000000 -87.066300
-9.885308 16.713591 -1.228662 0.352152 85.126638 18.405846 -9.576025 -0.624018 1.448938 -9.670224 -1.763863 -46.361377 -1.610930 0.994358 25.011336 1.500627 8.549527 2.831968 2.047600 0.000000 -26.876000 10.167335 -2.579976 -2.747140 2.864383 -6.759612 -3.362595 0.727429 -2.341228 30.449863 -0.329121 -0.088774 8.044424 -0.136300 0.000000 -87.634300
-9.698160 16.726715 -1.245239 6.830516 85.678568 24.750609 -9.550674 -0.701566 1.359341 -10.250743 -2.185853 -45.710547 -1.595784 0.976037 25.979602 1.542979 8.782968 1.742752 1.920099 -0.000000 -26.715700 10.399499 -2.666826 -2.859349 2.202377 -7.619388 -4.632691 0.472568 -2.623739 33.313722 -0.539926 -0.901293 10.537314 -0.293700 0.000000 -87.055601
-9.514138 16.742480 -1.264160 12.840347 86.175736 30.641902 -9.457599 -0.747188 1.284631 -10.736487 -2.624820 -44.965451 -1.584602 0.935283 26.755154 1.595436 9.040140 0.587107 1.775599 -0.000000 -26.662000 10.681762 -2.694627 -2.964745 1.658500 -8.426204 -5.974909 0.231557 -2.868166 36.205425 -0.792361 -1.930321 13.010485 -0.572600 0.000000 -85.243300
-9.333375 16.760910 -1.284998 18.324873 86.590056 36.016485 -9.318859 -0.752666 1.225720 -11.145087 -3.060489 -44.130754 -1.580554 0.881123 27.321695 1.657303 9.316119 -0.568115 1.620700 0.000000 -26.668600 10.985309 -2.655481 -3.066327 1.217336 -9.155584 -7.364313 0.010897 -3.072690 39.095544 -1.071955 -3.161332 15.315524 -0.994300 0.000000 -82.290700
-9.155772 16.782006 -1.307692 23.048172 86.905325 40.636710 -9.165608 -0.720642 1.181910 -11.483876 -3.466673 -43.224007 -1.584214 0.822013 27.680044 1.725010 9.596131 -1.667508 1.461500 -0.000000 -26.692500 11.273758 -2.555153 -3.165108 0.881430 -9.781727 -8.780618 -0.185435 -3.241247 41.947664 -1.363277 -4.579836 17.312421 -1.566201 -0.000000 -78.506900
-8.981110 16.805845 -1.332293 26.792758 87.127673 44.285981 -9.028883 -0.663807 1.149873 -11.755477 -3.819644 -42.265838 -1.593831 0.763166 27.844590 1.792932 9.861471 -2.668473 1.304100 0.000000 -26.699500 11.515338 -2.411592 -3.260452 0.660992 -10.287626 -10.211828 -0.356087 -3.383014 44.724149 -1.652428 -6.158133 18.890991 -2.273100 -0.000000 -74.329400
-8.809151 16.832482 -1.358214 29.657031 87.277940 47.059651 -8.919670 -0.594757 1.122725 -11.977774 -4.110473 -41.257369 -1.608102 0.704098 27.822920 1.856143 10.104819 -3.537259 1.157300 -0.000000 -26.667000 11.704206 -2.244931 -3.351518 0.542596 -10.675905 -11.648144 -0.502370 -3.510430 47.392089 -1.927921 -7.837756 19.979907 -3.068300 0.000000 -70.181700
-8.639533 16.861969 -1.385253 31.643685 87.375296 48.960748 -8.846272 -0.523097 1.095456 -12.155405 -4.327006 -40.209310 -1.625261 0.645114 27.633625 1.910466 10.316220 -4.259457 1.026699 0.000000 -26.587700 11.836872 -2.072164 -3.436039 0.526206 -10.945702 -13.084049 -0.629300 -3.631742 49.923985 -2.181509 -9.549531 20.550331 -3.888000 -0.000000 -66.375801
-8.471833 16.894185 -1.413273 32.762709 87.438097 50.000344 -8.813058 -0.455464 1.064990 -12.287368 -4.460441 -39.135649 -1.643692 0.586550 27.300443 1.952884 10.486200 -4.836674 0.914700 -0.000000 -26.467900 11.913641 -1.906109 -3.511479 0.614459 -11.099766 -14.517644 -0.742616 -3.751226 52.298146 -2.407349 -11.214917 20.608585 -4.659500 0.000000 -63.066600
-8.305665 16.928969 -1.441861 33.154764 87.479442 50.317631 -8.815087 -0.393482 1.028728 -12.380934 -4.512289 -38.037193 -1.663053 0.527521 26.838477 1.982793 10.615286 -5.279698 0.822400 0.000000 -26.322200 11.943988 -1.752871 -3.576738 0.793497 -11.150340 -15.944283 -0.846816 -3.870473 54.496394 -2.600852 -12.747810 20.189886 -5.309600 0.000000 -60.276000
-8.140682 16.966014 -1.470921 32.902896 87.510092 49.995547 -8.849204 -0.337672 0.986649 -12.436523 -4.487172 -36.920712 -1.682891 0.468068 26.267322 2.000468 10.702528 -5.610569 0.747400 -0.000000 -26.171400 11.933802 -1.615255 -3.630925 1.055190 -11.109997 -17.359978 -0.944378 -3.987644 56.501207 -2.758651 -14.074049 19.355164 -5.782300 -0.000000 -57.952800
-7.976515 17.004881 -1.500304 32.106260 87.537837 49.132662 -8.910665 -0.286906 0.939781 -12.455620 -4.395604 -35.787762 -1.703010 0.408119 25.602982 2.007205 10.750157 -5.854609 0.686300 -0.000000 -26.037000 11.889523 -1.492718 -3.674000 1.387131 -10.994289 -18.758534 -1.035302 -4.099236 58.294927 -2.878093 -15.134269 18.186531 -6.045100 -0.000000 -56.015700
-7.812865 17.045077 -1.529939 30.858959 87.568286 47.822984 -8.994288 -0.239430 0.890120 -12.439445 -4.252330 -34.639000 -1.723293 0.347673 24.859680 2.004737 10.761312 -6.037969 0.634700 0.000000 -25.938099 11.817054 -1.382780 -3.706609 1.775840 -10.820321 -20.131839 -1.117527 -4.200985 59.860448 -2.957412 -15.890492 16.781283 -6.094001 0.000000 -54.389000
-7.649385 17.086003 -1.559809 29.242010 87.606644 46.150519 -9.094650 -0.193163 0.842647 -12.388522 -4.080265 -33.479094 -1.743116 0.286515 24.049426 1.995630 10.743380 -6.183203 0.589100 -0.000000 -25.885900 11.721551 -1.281803 -3.728756 2.208560 -10.605877 -21.478066 -1.187815 -4.288630 61.184588 -2.995930 -16.327505 15.242561 -5.951100 0.000000 -52.990999
-7.486409 17.127012 -1.589874 27.282265 87.654836 44.127456 -9.208607 -0.146769 0.791736 -12.307960 -3.876969 -32.287867 -1.763267 0.225702 23.180642 1.979183 10.689282 -6.308119 0.545100 -0.000000 -25.894900 11.607202 -1.185964 -3.746257 2.668331 -10.369066 -22.766883 -1.242631 -4.359344 62.251016 -2.994608 -16.453414 13.678830 -5.659600 -0.000000 -51.886800
-7.323365 17.167532 -1.620145 25.002043 87.715605 41.787739 -9.330674 -0.097851 0.746726 -12.196997 -3.673298 -31.082633 -1.782307 0.164907 22.263551 1.958547 10.611056 -6.422970 0.502200 0.000000 -25.955200 11.478285 -1.091252 -3.757020 3.148221 -10.124286 -24.011126 -1.279364 -4.410211 63.057981 -2.956044 -16.294481 12.176267 -5.269700 -0.000000 -50.985400
-7.160170 17.206904 -1.650466 22.422587 87.789294 39.153571 -9.454643 -0.044067 0.710133 -12.062696 -3.483859 -29.865850 -1.799913 0.104187 21.304874 1.935040 10.514437 -6.530873 0.460600 0.000000 -26.054900 11.340912 -0.993778 -3.761405 3.635854 -9.884324 -25.209685 -1.296543 -4.440441 63.606349 -2.884913 -15.892382 10.808699 -4.832200 0.000000 -50.328400
-6.997416 17.244614 -1.680982 19.216956 87.868959 35.877711 -9.583795 0.016077 0.671238 -11.903030 -3.276789 -28.620395 -1.817099 0.047163 20.315305 1.904638 10.376670 -6.634410 0.417700 0.000001 -26.190800 11.194205 -0.890498 -3.766740 4.130508 -9.655481 -26.327798 -1.294457 -4.448819 63.895602 -2.786470 -15.295546 9.616123 -4.386100 0.000000 -49.929900
-6.834532 17.280162 -1.711270 15.350194 87.950432 31.942406 -9.705645 0.087068 0.638823 -11.728357 -3.079731 -27.370670 -1.833155 -0.007165 19.299806 1.870960 10.216878 -6.725774 0.377600 0.000000 -26.331500 11.049626 -0.776212 -3.767391 4.622517 -9.440490 -27.393447 -1.274181 -4.436342 63.943487 -2.667612 -14.555719 8.613895 -3.958700 -0.000000 -49.767901
